<svg width="32" height="35" viewBox="0 0 32 35" fill="none" xmlns="http://www.w3.org/2000/svg">
<mask id="path-1-inside-1_12_23" fill="white">
<path d="M10.5964 1.87776C10.5934 1.02964 9.90498 0.343719 9.05686 0.343719C8.20927 0.343719 7.5211 1.0288 7.51729 1.87637L7.39007 30.1308L2.70179 24.5607C2.2243 23.9934 1.40885 23.85 0.766432 24.2203C-0.057686 24.6953 -0.253467 25.7991 0.356997 26.5286L6.36806 33.7117C6.66115 34.0822 7.05712 34.3917 7.52419 34.6154C7.99126 34.8391 8.51643 34.9709 9.05755 35C9.59867 34.9709 10.1238 34.8391 10.5909 34.6154C11.058 34.3917 11.4539 34.0822 11.747 33.7117L17.7569 26.53C18.368 25.7998 18.172 24.6949 17.3471 24.2194C16.7052 23.8494 15.8906 23.9917 15.4121 24.5573L10.6981 30.1308L10.5964 1.87776ZM19.7079 1.2869L16.1175 5.57746L13.698 8.46864C13.087 9.19887 13.2829 10.3038 14.1079 10.7793C14.7497 11.1493 15.5644 11.007 16.0428 10.4413L20.7568 4.86782V33.3038C20.7568 34.2406 21.5162 35 22.453 35C23.3905 35 24.1503 34.2395 24.1493 33.3019L24.1187 4.91149L28.6655 10.4485C29.1456 11.0333 29.9782 11.1849 30.6337 10.8071C31.4522 10.3353 31.6604 9.24667 31.0739 8.50616L28.7715 5.59929L25.3558 1.2869C25.0605 0.893863 24.6456 0.569076 24.1511 0.343719C23.6566 0.118361 23.099 0 22.5319 0C21.9648 0 21.4072 0.118361 20.9127 0.343719C20.4181 0.569076 20.0033 0.893863 19.7079 1.2869Z"/>
</mask>
<path d="M10.5964 1.87776C10.5934 1.02964 9.90498 0.343719 9.05686 0.343719C8.20927 0.343719 7.5211 1.0288 7.51729 1.87637L7.39007 30.1308L2.70179 24.5607C2.2243 23.9934 1.40885 23.85 0.766432 24.2203C-0.057686 24.6953 -0.253467 25.7991 0.356997 26.5286L6.36806 33.7117C6.66115 34.0822 7.05712 34.3917 7.52419 34.6154C7.99126 34.8391 8.51643 34.9709 9.05755 35C9.59867 34.9709 10.1238 34.8391 10.5909 34.6154C11.058 34.3917 11.4539 34.0822 11.747 33.7117L17.7569 26.53C18.368 25.7998 18.172 24.6949 17.3471 24.2194C16.7052 23.8494 15.8906 23.9917 15.4121 24.5573L10.6981 30.1308L10.5964 1.87776ZM19.7079 1.2869L16.1175 5.57746L13.698 8.46864C13.087 9.19887 13.2829 10.3038 14.1079 10.7793C14.7497 11.1493 15.5644 11.007 16.0428 10.4413L20.7568 4.86782V33.3038C20.7568 34.2406 21.5162 35 22.453 35C23.3905 35 24.1503 34.2395 24.1493 33.3019L24.1187 4.91149L28.6655 10.4485C29.1456 11.0333 29.9782 11.1849 30.6337 10.8071C31.4522 10.3353 31.6604 9.24667 31.0739 8.50616L28.7715 5.59929L25.3558 1.2869C25.0605 0.893863 24.6456 0.569076 24.1511 0.343719C23.6566 0.118361 23.099 0 22.5319 0C21.9648 0 21.4072 0.118361 20.9127 0.343719C20.4181 0.569076 20.0033 0.893863 19.7079 1.2869Z" fill="#F4F2F2"/>
<path d="M7.39007 30.1308L-30.8634 62.3282L56.7768 166.453L57.3896 30.3559L7.39007 30.1308ZM6.36806 33.7117L45.5796 2.68833L45.1537 2.14996L44.7131 1.62348L6.36806 33.7117ZM9.05755 35L6.36881 84.9277L9.05755 85.0724L11.7463 84.9277L9.05755 35ZM11.747 33.7117L-26.598 1.62349L-27.0386 2.14996L-27.4645 2.68833L11.747 33.7117ZM10.6981 30.1308L-39.3015 30.3108L-38.8128 166.094L48.8742 62.4199L10.6981 30.1308ZM19.7079 1.2869L58.053 33.3751L58.8928 32.3716L59.679 31.3254L19.7079 1.2869ZM20.7568 4.86782H70.7568V-131.674L-17.4193 -27.4213L20.7568 4.86782ZM24.1187 4.91149L62.7601 -26.8192L-26.032 -134.95L-25.8813 4.96535L24.1187 4.91149ZM25.3558 1.2869L-14.6153 31.3254L-14.2336 31.8333L-13.8391 32.3314L25.3558 1.2869ZM28.7715 5.59929L67.9664 -25.4452L67.9664 -25.4452L28.7715 5.59929ZM16.1175 5.57746L-22.2276 -26.5108L-22.2276 -26.5108L16.1175 5.57746ZM30.6337 10.8071L55.6036 54.1258L30.6337 10.8071ZM28.6655 10.4485L-9.97598 42.1793L28.6655 10.4485ZM22.453 35L22.4531 -15L22.453 35ZM24.1493 33.3019L-25.8507 33.3558L24.1493 33.3019ZM14.1079 10.7793L39.0777 -32.5394L14.1079 10.7793ZM16.0428 10.4413L-22.1333 -21.8478L16.0428 10.4413ZM0.766432 24.2203L-24.2034 -19.0984L0.766432 24.2203ZM2.70179 24.5607L-35.5517 56.7581L2.70179 24.5607ZM7.51729 1.87637L57.5168 2.1015L7.51729 1.87637ZM17.7569 26.53L56.102 58.6183L17.7569 26.53ZM15.4121 24.5573L-22.764 -7.73174L15.4121 24.5573ZM7.51729 1.87637L-42.4822 1.65124L-42.6094 29.9057L7.39007 30.1308L57.3896 30.3559L57.5168 2.1015L7.51729 1.87637ZM7.39007 30.1308L45.6435 -2.06661L40.9552 -7.63671L2.70179 24.5607L-35.5517 56.7581L-30.8634 62.3282L7.39007 30.1308ZM0.356997 26.5286L-37.9881 58.6168L-31.977 65.8L6.36806 33.7117L44.7131 1.62348L38.7021 -5.55967L0.356997 26.5286ZM6.36806 33.7117L-32.8435 64.7351C-27.3861 71.6329 -20.7362 76.5188 -14.0756 79.7092L7.52419 34.6154L29.124 -10.4783C34.8504 -7.73543 40.7084 -3.46858 45.5796 2.68833L6.36806 33.7117ZM7.52419 34.6154L-14.0756 79.7092C-7.41054 82.9017 -0.423044 84.5619 6.36881 84.9277L9.05755 35L11.7463 -14.9277C17.4559 -14.6202 23.3931 -13.2235 29.124 -10.4783L7.52419 34.6154ZM9.05755 35L11.7463 84.9277C18.5381 84.5619 25.5256 82.9018 32.1907 79.7092L10.5909 34.6154L-11.0089 -10.4783C-5.27794 -13.2235 0.659223 -14.6202 6.36881 -14.9277L9.05755 35ZM10.5909 34.6154L32.1907 79.7092C38.8513 76.5188 45.5012 71.6329 50.9586 64.7351L11.747 33.7117L-27.4645 2.68833C-22.5933 -3.46857 -16.7353 -7.73542 -11.0089 -10.4783L10.5909 34.6154ZM11.747 33.7117L50.0921 65.8L56.102 58.6183L17.7569 26.53L-20.5881 -5.55825L-26.598 1.62349L11.747 33.7117ZM15.4121 24.5573L-22.764 -7.73174L-27.478 -2.15826L10.6981 30.1308L48.8742 62.4199L53.5883 56.8464L15.4121 24.5573ZM10.6981 30.1308L60.6978 29.9508L60.5961 1.69777L10.5964 1.87776L-39.4032 2.05775L-39.3015 30.3108L10.6981 30.1308ZM16.0428 10.4413L54.2189 42.7304L58.9329 37.1569L20.7568 4.86782L-17.4193 -27.4213L-22.1333 -21.8478L16.0428 10.4413ZM20.7568 4.86782H-29.2432V33.3038H20.7568H70.7568V4.86782H20.7568ZM24.1493 33.3019L74.1492 33.2481L74.1186 4.85763L24.1187 4.91149L-25.8813 4.96535L-25.8507 33.3558L24.1493 33.3019ZM24.1187 4.91149L-14.5228 36.6422L-9.97598 42.1793L28.6655 10.4485L67.3069 -21.2822L62.7601 -26.8192L24.1187 4.91149ZM25.3558 1.2869L65.3269 -28.7516C59.4981 -36.5078 52.1651 -41.8371 44.885 -45.1547L24.1511 0.343719L3.41719 45.8421C-2.8739 42.9752 -9.37716 38.2955 -14.6153 31.3254L25.3558 1.2869ZM24.1511 0.343719L44.885 -45.1547C37.5968 -48.476 29.9339 -50 22.5319 -50V0V50C16.264 50 9.71635 48.7127 3.41719 45.8421L24.1511 0.343719ZM22.5319 0V-50C15.1298 -50 7.46696 -48.476 0.178773 -45.1547L20.9127 0.343719L41.6466 45.8421C35.3474 48.7127 28.7997 50 22.5319 50V0ZM20.9127 0.343719L0.178773 -45.1547C-7.1013 -41.8371 -14.4343 -36.5079 -20.2632 -28.7516L19.7079 1.2869L59.679 31.3254C54.4409 38.2956 47.9376 42.9753 41.6466 45.8421L20.9127 0.343719ZM31.0739 8.50616L70.2688 -22.5383L67.9664 -25.4452L28.7715 5.59929L-10.4234 36.6437L-8.12103 39.5506L31.0739 8.50616ZM28.7715 5.59929L67.9664 -25.4452L64.5508 -29.7576L25.3558 1.2869L-13.8391 32.3314L-10.4234 36.6438L28.7715 5.59929ZM19.7079 1.2869L-18.6372 -30.8014L-22.2276 -26.5108L16.1175 5.57746L54.4625 37.6657L58.053 33.3751L19.7079 1.2869ZM16.1175 5.57746L-22.2276 -26.5108L-24.647 -23.6196L13.698 8.46864L52.0431 40.5569L54.4625 37.6657L16.1175 5.57746ZM30.6337 10.8071L55.6036 54.1258C82.8722 38.4075 89.8109 2.13445 70.2688 -22.5383L31.0739 8.50616L-8.12103 39.5506C-26.4901 16.3589 -19.9679 -17.7368 5.66387 -32.5116L30.6337 10.8071ZM28.6655 10.4485L-9.97598 42.1793C6.02191 61.6614 33.7634 66.715 55.6036 54.1258L30.6337 10.8071L5.66387 -32.5116C26.1931 -44.3451 52.2693 -39.5948 67.3069 -21.2822L28.6655 10.4485ZM22.453 35L22.4529 85C51.0258 85.0001 74.18 61.8209 74.1492 33.2481L24.1493 33.3019L-25.8507 33.3558C-25.8795 6.65804 -4.24468 -15.0001 22.4531 -15L22.453 35ZM20.7568 33.3038H-29.2432C-29.2432 61.8548 -6.09804 84.9999 22.4529 85L22.453 35L22.4531 -15C49.1305 -14.9999 70.7568 6.62635 70.7568 33.3038H20.7568ZM14.1079 10.7793L-10.8619 54.098C10.7268 66.5422 38.127 61.7563 54.2189 42.7304L16.0428 10.4413L-22.1333 -21.8478C-6.99822 -39.7423 18.7727 -44.2437 39.0777 -32.5394L14.1079 10.7793ZM0.766432 24.2203L-24.2034 -19.0984C-51.9494 -3.10498 -58.5409 34.0565 -37.9881 58.6168L0.356997 26.5286L38.7021 -5.55967C58.034 17.5417 51.834 52.4956 25.7363 67.5389L0.766432 24.2203ZM14.1079 10.7793L39.0777 -32.5394C65.1747 -17.4966 71.3744 17.4562 52.0431 40.5569L13.698 8.46864L-24.647 -23.6196C-45.2005 0.941493 -38.6088 38.1041 -10.8619 54.098L14.1079 10.7793ZM2.70179 24.5607L40.9552 -7.63671C24.8794 -26.7362 -2.5749 -31.5655 -24.2034 -19.0984L0.766432 24.2203L25.7363 67.5389C5.3926 79.2655 -20.4308 74.7231 -35.5517 56.7581L2.70179 24.5607ZM9.05686 0.343719L9.05686 -49.6563C-19.3171 -49.6563 -42.3544 -26.7224 -42.4822 1.65124L7.51729 1.87637L57.5168 2.1015C57.3967 28.78 35.7356 50.3437 9.05686 50.3437L9.05686 0.343719ZM17.7569 26.53L56.102 58.6183C76.6554 34.0572 70.0638 -3.10538 42.3169 -19.0993L17.3471 24.2194L-7.62277 67.538C-33.7198 52.4951 -39.9194 17.5423 -20.5881 -5.55825L17.7569 26.53ZM17.3471 24.2194L42.3169 -19.0993C20.7282 -31.5435 -6.67203 -26.7576 -22.764 -7.73174L15.4121 24.5573L53.5883 56.8464C38.4532 74.741 12.6823 79.2423 -7.62277 67.538L17.3471 24.2194ZM9.05686 0.343719L9.05686 50.3437C-17.639 50.3437 -39.3071 28.7534 -39.4032 2.05775L10.5964 1.87776L60.5961 1.69777C60.4939 -26.6942 37.4489 -49.6563 9.05686 -49.6563L9.05686 0.343719Z" fill="#7B9794" mask="url(#path-1-inside-1_12_23)"/>
</svg>
