<svg width="42" height="35" viewBox="0 0 42 35" fill="none" xmlns="http://www.w3.org/2000/svg">
<path fill-rule="evenodd" clip-rule="evenodd" d="M21 1.94444C21 0.870567 21.8547 0 22.9091 0H25.8844C28.3496 0 30.5382 1.60668 31.3177 3.98868L37.7093 23.5184C40.177 24.1675 42 26.4503 42 29.1667C42 32.3884 39.4359 35 36.2727 35C33.1096 35 30.5455 32.3884 30.5455 29.1667C30.5455 26.8433 31.8791 24.8372 33.8092 23.899L32.4826 19.846L28.5356 27.8864C27.5654 29.8626 25.5822 31.1109 23.4129 31.1109H11.1287C10.3425 33.3768 8.221 35 5.72727 35C2.5642 35 0 32.3884 0 29.1667C0 25.9449 2.5642 23.3333 5.72727 23.3333C8.22093 23.3333 10.3424 24.9566 11.1286 27.222H23.4129C24.1361 27.222 24.7972 26.8059 25.1206 26.1473L30.7471 14.6858L30.8034 14.7146L27.6956 5.21844C27.4357 4.42445 26.7061 3.88889 25.8844 3.88889H22.9091C21.8547 3.88889 21 3.01832 21 1.94444ZM5.72727 31.1173C4.66954 31.1173 3.81209 30.2439 3.81209 29.1667C3.81209 28.0894 4.66954 27.216 5.72727 27.216C6.785 27.216 7.64245 28.0894 7.64245 29.1667C7.64245 30.2439 6.785 31.1173 5.72727 31.1173ZM36.2727 31.1173C35.2151 31.1173 34.3575 30.2439 34.3575 29.1667C34.3575 28.0894 35.2151 27.216 36.2727 27.216C37.3304 27.216 38.1879 28.0894 38.1879 29.1667C38.1879 30.2439 37.3304 31.1173 36.2727 31.1173Z" fill="#7B9794"/>
</svg>
