<svg width="46" height="40" viewBox="0 0 46 40" fill="none" xmlns="http://www.w3.org/2000/svg">
<path d="M43.125 17.1429C43.125 11.2136 39.5197 0 25.875 0H20.125C6.48025 0 2.875 11.2136 2.875 17.1429C1.28584 17.1429 0 18.4207 0 20V31.4286C0 33.0079 1.28584 34.2857 2.875 34.2857H5.75V37.1429C5.75 38.7221 7.03584 40 8.625 40H11.5C13.0892 40 14.375 38.7221 14.375 37.1429V34.2857H31.625V37.1429C31.625 38.7221 32.9108 40 34.5 40H37.375C38.9642 40 40.25 38.7221 40.25 37.1429V34.2857H43.125C44.7142 34.2857 46 33.0079 46 31.4286V20C46 18.4207 44.7142 17.1429 43.125 17.1429ZM11.5 28.5714C9.91084 28.5714 8.625 27.2936 8.625 25.7143C8.625 24.135 9.91084 22.8571 11.5 22.8571C13.0892 22.8571 14.375 24.135 14.375 25.7143C14.375 27.2936 13.0892 28.5714 11.5 28.5714ZM8.625 17.1429C8.625 16.6771 8.75725 5.71429 20.125 5.71429H25.875C36.9509 5.71429 37.3635 15.985 37.375 17.1429H8.625ZM34.5 28.5714C32.9108 28.5714 31.625 27.2936 31.625 25.7143C31.625 24.135 32.9108 22.8571 34.5 22.8571C36.0892 22.8571 37.375 24.135 37.375 25.7143C37.375 27.2936 36.0892 28.5714 34.5 28.5714Z" fill="#7B9794"/>
</svg>
