<svg width="49" height="40" viewBox="0 0 49 40" fill="none" xmlns="http://www.w3.org/2000/svg">
<path d="M38.384 17.6638C38.2891 17.1065 35.6545 1.32165 35.7361 1.83929C35.6501 1.3261 35.3849 0.859863 34.9875 0.523202C34.5901 0.186542 34.0862 0.00119363 33.5649 0H24.7389C24.1537 0 23.5925 0.232074 23.1787 0.645169C22.7649 1.05826 22.5324 1.61854 22.5324 2.20274C22.5324 2.78695 22.7649 3.34722 23.1787 3.76032C23.5925 4.17341 24.1537 4.40549 24.7389 4.40549H31.696L32.989 12.1525L19.3682 20.9371C17.4252 18.9298 14.8038 17.7155 12.0138 17.5303C9.22381 17.3452 6.46452 18.2023 4.27239 19.9352C2.08025 21.6681 0.611934 24.1528 0.152892 26.9063C-0.306151 29.6599 0.276887 32.4854 1.78865 34.8336C3.30042 37.1819 5.63289 38.885 8.33258 39.6119C11.0323 40.3388 13.9063 40.0376 16.3959 38.7667C18.8854 37.4959 20.8126 35.3462 21.8028 32.7357C22.793 30.1252 22.7754 27.2404 21.7535 24.6421L33.779 16.8862L34.0283 18.3819C31.4745 19.3564 29.3742 21.2427 28.1344 23.6753C26.8947 26.1078 26.6038 28.9133 27.3182 31.5477C28.0327 34.1822 29.7015 36.458 32.0012 37.934C34.3009 39.4099 37.0676 39.9809 39.7651 39.5362C42.4625 39.0915 44.8984 37.6628 46.6007 35.527C48.3029 33.3913 49.1501 30.7007 48.9781 27.9768C48.8061 25.2529 47.6272 22.6898 45.6698 20.7843C43.7124 18.8789 41.116 17.7668 38.384 17.6638ZM11.4998 35.2439C9.74422 35.2439 8.06051 34.5477 6.81911 33.3084C5.57771 32.0691 4.88029 30.3883 4.88029 28.6357C4.88029 26.8831 5.57771 25.2022 6.81911 23.9629C8.06051 22.7237 9.74422 22.0274 11.4998 22.0274C12.9573 22.0328 14.3713 22.5234 15.5179 23.4218L10.3039 26.7854C10.0525 26.9385 9.83441 27.1402 9.66237 27.3788C9.49033 27.6173 9.36786 27.8878 9.30217 28.1744C9.23648 28.4609 9.2289 28.7577 9.27988 29.0472C9.33086 29.3367 9.43937 29.6131 9.59901 29.8601C9.75865 30.107 9.9662 30.3196 10.2094 30.4853C10.4526 30.651 10.7266 30.7664 11.0152 30.8247C11.3038 30.8831 11.6012 30.8831 11.8898 30.825C12.1784 30.7668 12.4524 30.6515 12.6958 30.486L17.9252 27.1136C18.0495 27.6116 18.1146 28.1225 18.1194 28.6357C18.1194 30.3883 17.4219 32.0691 16.1805 33.3084C14.9391 34.5477 13.2554 35.2439 11.4998 35.2439ZM37.978 35.2439C36.5116 35.2489 35.0853 34.766 33.9245 33.8715C32.7636 32.977 31.9344 31.722 31.5677 30.3046C31.2011 28.8871 31.3179 27.3882 31.8997 26.0444C32.4816 24.7007 33.4953 23.5888 34.7807 22.8843L35.8023 28.9991C35.8439 29.2899 35.9433 29.5695 36.0947 29.8213C36.2461 30.0732 36.4464 30.2923 36.6839 30.4657C36.9213 30.6391 37.1912 30.7634 37.4774 30.8312C37.7637 30.899 38.0607 30.909 38.3509 30.8605C38.6411 30.812 38.9187 30.7061 39.1672 30.5489C39.4158 30.3918 39.6304 30.1866 39.7984 29.9454C39.9663 29.7042 40.0843 29.432 40.1453 29.1446C40.2063 28.8573 40.2091 28.5607 40.1536 28.2722L39.132 22.1442C40.7442 22.4501 42.1851 23.3429 43.1751 24.6495C44.1651 25.956 44.6337 27.5831 44.4899 29.2151C44.3462 30.8471 43.6003 32.3675 42.397 33.4815C41.1938 34.5955 39.6189 35.2236 37.978 35.2439ZM17.4729 7.25364L21.8859 11.6591C22.0966 11.8623 22.2647 12.1054 22.3804 12.3741C22.496 12.6429 22.5569 12.9319 22.5594 13.2244C22.562 13.5169 22.5061 13.8069 22.3952 14.0776C22.2842 14.3483 22.1204 14.5943 21.9132 14.8011C21.706 15.0079 21.4597 15.1715 21.1885 15.2822C20.9173 15.393 20.6268 15.4487 20.3338 15.4462C20.0408 15.4437 19.7513 15.3829 19.4821 15.2674C19.2129 15.152 18.9694 14.9842 18.7659 14.7738L14.9994 11.0137H11.4998C10.9146 11.0137 10.3534 10.7816 9.93959 10.3685C9.52579 9.95545 9.29332 9.39518 9.29332 8.81098C9.29332 8.22677 9.52579 7.66649 9.93959 7.2534C10.3534 6.84031 10.9146 6.60823 11.4998 6.60823H15.9128C16.498 6.60836 17.0591 6.84051 17.4729 7.25364Z" fill="#7B9794"/>
</svg>
