<svg width="43" height="43" viewBox="0 0 43 43" fill="none" xmlns="http://www.w3.org/2000/svg">
<path fill-rule="evenodd" clip-rule="evenodd" d="M4.3 21.5V6.67361C4.3 5.48681 5.2632 4.3 6.45 4.3H36.55C37.7368 4.3 38.7 5.48681 38.7 6.67361V21.5H4.3ZM8.6 34.6236C7.4132 34.6236 6.45 33.6604 6.45 32.4736C6.45 31.2868 7.4132 30.3236 8.6 30.3236C9.7868 30.3236 10.75 31.2868 10.75 32.4736C10.75 33.6604 9.7868 34.6236 8.6 34.6236ZM34.4 34.6236C33.2132 34.6236 32.25 33.6604 32.25 32.4736C32.25 31.2868 33.2132 30.3236 34.4 30.3236C35.5868 30.3236 36.55 31.2868 36.55 32.4736C36.55 33.6604 35.5868 34.6236 34.4 34.6236ZM4.3 0C1.92425 0 0 2.15001 0 4.52361V21.7236V34.6236C0 36.9994 1.92425 38.9236 4.3 38.9236V41.0736C4.3 42.2604 5.2632 43 6.45 43H10.75C11.9368 43 12.9 42.2604 12.9 41.0736V38.7H30.1V41.0736C30.1 42.2604 31.0632 43 32.25 43H36.55C37.7368 43 38.7 42.2604 38.7 41.0736V38.9236C41.0758 38.9236 43 36.9994 43 34.6236V21.7236V4.52361C43 2.15001 41.0758 0 38.7 0H4.3Z" fill="#7B9794"/>
</svg>
