<svg width="818" height="80" viewBox="0 0 818 80" fill="none" xmlns="http://www.w3.org/2000/svg">
<path d="M0 44C0 40.6863 2.68629 38 6 38H8C11.3137 38 14 40.6863 14 44V80H0V44Z" fill="#5AE5BE"/>
<path d="M19 44C19 40.6863 21.6863 38 25 38H27C30.3137 38 33 40.6863 33 44V80H19V44Z" fill="#5AE5BE"/>
<path d="M38 35C38 31.6863 40.6863 29 44 29H46C49.3137 29 52 31.6863 52 35V80H38V35Z" fill="#5AE5BE"/>
<path d="M57 20C57 16.6863 59.6863 14 63 14H65C68.3137 14 71 16.6863 71 20V80H57V20Z" fill="#EA8B37"/>
<path d="M76 6C76 2.68629 78.6863 0 82 0H84C87.3137 0 90 2.68629 90 6V80H76V6Z" fill="#EA8B37"/>
<path d="M95 20C95 16.6863 97.6863 14 101 14H103C106.314 14 109 16.6863 109 20V80H95V20Z" fill="#5AE5BE"/>
<path d="M114 35C114 31.6863 116.686 29 120 29H122C125.314 29 128 31.6863 128 35V80H114V35Z" fill="#5AE5BE"/>
<path d="M133 35C133 31.6863 135.686 29 139 29H141C144.314 29 147 31.6863 147 35V80H133V35Z" fill="#5AE5BE"/>
<path d="M152 53C152 49.6863 154.686 47 158 47H160C163.314 47 166 49.6863 166 53V80H152V53Z" fill="#5AE5BE"/>
<path d="M171 53C171 49.6863 173.686 47 177 47H179C182.314 47 185 49.6863 185 53V80H171V53Z" fill="#5AE5BE"/>
<path d="M192 44C192 40.6863 194.686 38 198 38H200C203.314 38 206 40.6863 206 44V80H192V44Z" fill="#5AE5BE"/>
<path d="M211 44C211 40.6863 213.686 38 217 38H219C222.314 38 225 40.6863 225 44V80H211V44Z" fill="#5AE5BE"/>
<path d="M230 35C230 31.6863 232.686 29 236 29H238C241.314 29 244 31.6863 244 35V80H230V35Z" fill="#5AE5BE"/>
<path d="M249 20C249 16.6863 251.686 14 255 14H257C260.314 14 263 16.6863 263 20V80H249V20Z" fill="#EA8B37"/>
<path d="M268 6C268 2.68629 270.686 0 274 0H276C279.314 0 282 2.68629 282 6V80H268V6Z" fill="#EA8B37"/>
<path d="M287 20C287 16.6863 289.686 14 293 14H295C298.314 14 301 16.6863 301 20V80H287V20Z" fill="#5AE5BE"/>
<path d="M306 35C306 31.6863 308.686 29 312 29H314C317.314 29 320 31.6863 320 35V80H306V35Z" fill="#5AE5BE"/>
<path d="M325 35C325 31.6863 327.686 29 331 29H333C336.314 29 339 31.6863 339 35V80H325V35Z" fill="#5AE5BE"/>
<path d="M344 53C344 49.6863 346.686 47 350 47H352C355.314 47 358 49.6863 358 53V80H344V53Z" fill="#5AE5BE"/>
<path d="M363 53C363 49.6863 365.686 47 369 47H371C374.314 47 377 49.6863 377 53V80H363V53Z" fill="#5AE5BE"/>
<path d="M384 44C384 40.6863 386.686 38 390 38H392C395.314 38 398 40.6863 398 44V80H384V44Z" fill="#5AE5BE"/>
<path d="M403 44C403 40.6863 405.686 38 409 38H411C414.314 38 417 40.6863 417 44V80H403V44Z" fill="#5AE5BE"/>
<path d="M422 35C422 31.6863 424.686 29 428 29H430C433.314 29 436 31.6863 436 35V80H422V35Z" fill="#5AE5BE"/>
<path d="M441 20C441 16.6863 443.686 14 447 14H449C452.314 14 455 16.6863 455 20V80H441V20Z" fill="#EA8B37"/>
<path d="M460 6C460 2.68629 462.686 0 466 0H468C471.314 0 474 2.68629 474 6V80H460V6Z" fill="#EA8B37"/>
<path d="M479 20C479 16.6863 481.686 14 485 14H487C490.314 14 493 16.6863 493 20V80H479V20Z" fill="#5AE5BE"/>
<path d="M498 35C498 31.6863 500.686 29 504 29H506C509.314 29 512 31.6863 512 35V80H498V35Z" fill="#5AE5BE"/>
<path d="M517 35C517 31.6863 519.686 29 523 29H525C528.314 29 531 31.6863 531 35V80H517V35Z" fill="#5AE5BE"/>
<path d="M536 53C536 49.6863 538.686 47 542 47H544C547.314 47 550 49.6863 550 53V80H536V53Z" fill="#5AE5BE"/>
<path d="M555 53C555 49.6863 557.686 47 561 47H563C566.314 47 569 49.6863 569 53V80H555V53Z" fill="#5AE5BE"/>
<path d="M576 44C576 40.6863 578.686 38 582 38H584C587.314 38 590 40.6863 590 44V80H576V44Z" fill="#5AE5BE"/>
<path d="M595 44C595 40.6863 597.686 38 601 38H603C606.314 38 609 40.6863 609 44V80H595V44Z" fill="#5AE5BE"/>
<path d="M614 35C614 31.6863 616.686 29 620 29H622C625.314 29 628 31.6863 628 35V80H614V35Z" fill="#5AE5BE"/>
<path d="M633 20C633 16.6863 635.686 14 639 14H641C644.314 14 647 16.6863 647 20V80H633V20Z" fill="#EA8B37"/>
<path d="M652 6C652 2.68629 654.686 0 658 0H660C663.314 0 666 2.68629 666 6V80H652V6Z" fill="#EA8B37"/>
<path d="M671 20C671 16.6863 673.686 14 677 14H679C682.314 14 685 16.6863 685 20V80H671V20Z" fill="#5AE5BE"/>
<path d="M690 35C690 31.6863 692.686 29 696 29H698C701.314 29 704 31.6863 704 35V80H690V35Z" fill="#5AE5BE"/>
<path d="M709 35C709 31.6863 711.686 29 715 29H717C720.314 29 723 31.6863 723 35V80H709V35Z" fill="#5AE5BE"/>
<path d="M728 53C728 49.6863 730.686 47 734 47H736C739.314 47 742 49.6863 742 53V80H728V53Z" fill="#5AE5BE"/>
<path d="M747 53C747 49.6863 749.686 47 753 47H755C758.314 47 761 49.6863 761 53V80H747V53Z" fill="#5AE5BE"/>
<path d="M766 53C766 49.6863 768.686 47 772 47H774C777.314 47 780 49.6863 780 53V80H766V53Z" fill="#5AE5BE"/>
<path d="M785 53C785 49.6863 787.686 47 791 47H793C796.314 47 799 49.6863 799 53V80H785V53Z" fill="#5AE5BE"/>
<path d="M804 44C804 40.6863 806.686 38 810 38H812C815.314 38 818 40.6863 818 44V80H804V44Z" fill="#5AE5BE"/>
</svg>
