<svg width="38" height="45" viewBox="0 0 38 45" fill="none" xmlns="http://www.w3.org/2000/svg">
<path d="M29.4193 6.12903C29.4193 9.51402 26.6753 12.2581 23.2903 12.2581C19.9053 12.2581 17.1613 9.51402 17.1613 6.12903C17.1613 2.74406 19.9053 0 23.2903 0C26.6753 0 29.4193 2.74406 29.4193 6.12903Z" fill="#7B9794"/>
<path d="M2.4564 16.1106C3.28364 13.8302 5.93006 12.2581 8.94132 12.2581H18.9965L28.4708 15.9889L35.4954 13.776L38 18.7079L30.9757 20.9209C29.187 21.4843 27.1775 21.4185 25.4545 20.74L24.9487 20.5408L23.1454 26.2218L26.0861 27.5453C28.7095 28.7261 30.0159 31.1368 29.2831 33.4456L25.8918 44.129H18.9397L22.7399 32.1572L17.0201 29.5831L12.4028 44.129H5.45083L13.8814 17.5699H8.94132L7.01433 22.8817H0L2.4564 16.1106Z" fill="#7B9794"/>
</svg>
